<svg xmlns="http://www.w3.org/2000/svg" viewBox="0 0 512 512" width="512" height="512">
  <defs>
    <filter id="shadow" x="-10%" y="-10%" width="130%" height="130%">
      <feDropShadow dx="3" dy="5" stdDeviation="5" flood-color="#000000" flood-opacity="0.18"/>
    </filter>
  </defs>

  <!-- White background with rounded corners -->
  <rect width="512" height="512" rx="76" fill="#ffffff"/>

  <!-- Official ParaView bars from paraview.org SVG, scaled to fit 512x512 -->
  <g transform="translate(20, 85) scale(3)" filter="url(#shadow)">
    <polygon points="36.59 113.8 0 113.8 30.08 0 66.67 0 36.59 113.8" style="fill:#f32735;"/>
    <polygon points="81.86 113.8 45.26 113.8 75.34 0 111.94 0 81.86 113.8" style="fill:#3eae2b;"/>
    <polygon points="127.12 113.8 90.53 113.8 120.61 0 157.2 0 127.12 113.8" style="fill:#0068c7;"/>
  </g>

  <!-- MCP icon (black, centered) -->
  <g transform="translate(100, 100) scale(13)" fill="#1a1a1a" fill-rule="evenodd">
    <path d="M15.688 2.343a2.588 2.588 0 00-3.61 0l-9.626 9.44a.863.863 0 01-1.203 0 .823.823 0 010-1.18l9.626-9.44a4.313 4.313 0 016.016 0 4.116 4.116 0 011.204 3.54 4.3 4.3 0 013.609 1.18l.05.05a4.115 4.115 0 010 5.9l-8.706 8.537a.274.274 0 000 .393l1.788 1.754a.823.823 0 010 1.18.863.863 0 01-1.203 0l-1.788-1.753a1.92 1.92 0 010-2.754l8.706-8.538a2.47 2.47 0 000-3.54l-.05-.049a2.588 2.588 0 00-3.607-.003l-7.172 7.034-.002.002-.098.097a.863.863 0 01-1.204 0 .823.823 0 010-1.18l7.273-7.133a2.47 2.47 0 00-.003-3.537z"/>
    <path d="M14.485 4.703a.823.823 0 000-1.18.863.863 0 00-1.204 0l-7.119 6.982a4.115 4.115 0 000 5.9 4.314 4.314 0 006.016 0l7.12-6.982a.823.823 0 000-1.18.863.863 0 00-1.204 0l-7.119 6.982a2.588 2.588 0 01-3.61 0 2.47 2.47 0 010-3.54l7.12-6.982z"/>
  </g>
</svg>
